<svg xmlns="http://www.w3.org/2000/svg" width="1200" height="600" viewBox="0 0 1200 600">
  <defs>
    <linearGradient id="sky" x1="0%" y1="0%" x2="0%" y2="100%">
      <stop offset="0%" style="stop-color:#87CEEB"/>
      <stop offset="100%" style="stop-color:#E0F0FF"/>
    </linearGradient>
  </defs>
  <rect width="1200" height="600" fill="url(#sky)"/>
  <!-- Ground -->
  <rect x="0" y="450" width="1200" height="150" fill="#4CAF50"/>
  <!-- House body -->
  <rect x="400" y="250" width="400" height="200" fill="#FFF8E1" stroke="#795548" stroke-width="3"/>
  <!-- Roof -->
  <polygon points="380,250 600,120 820,250" fill="#D32F2F" stroke="#B71C1C" stroke-width="3"/>
  <!-- Door -->
  <rect x="560" y="340" width="80" height="110" fill="#795548" stroke="#5D4037" stroke-width="2"/>
  <circle cx="625" cy="400" r="5" fill="#FFC107"/>
  <!-- Windows -->
  <rect x="440" y="300" width="70" height="60" fill="#81D4FA" stroke="#795548" stroke-width="2"/>
  <line x1="475" y1="300" x2="475" y2="360" stroke="#795548" stroke-width="2"/>
  <line x1="440" y1="330" x2="510" y2="330" stroke="#795548" stroke-width="2"/>
  <rect x="690" y="300" width="70" height="60" fill="#81D4FA" stroke="#795548" stroke-width="2"/>
  <line x1="725" y1="300" x2="725" y2="360" stroke="#795548" stroke-width="2"/>
  <line x1="690" y1="330" x2="760" y2="330" stroke="#795548" stroke-width="2"/>
  <!-- Chimney -->
  <rect x="680" y="140" width="40" height="80" fill="#795548"/>
  <!-- Wrench icon -->
  <g transform="translate(900, 200) scale(2)">
    <path d="M14.7 6.3a1 1 0 0 0 0 1.4l1.6 1.6a1 1 0 0 0 1.4 0l3.77-3.77a6 6 0 0 1-7.94 7.94l-6.91 6.91a2.12 2.12 0 0 1-3-3l6.91-6.91a6 6 0 0 1 7.94-7.94l-3.76 3.76z" fill="none" stroke="#1565C0" stroke-width="1.5" stroke-linecap="round" stroke-linejoin="round"/>
  </g>
  <!-- Text -->
  <text x="600" y="530" text-anchor="middle" font-family="Arial, sans-serif" font-size="28" font-weight="bold" fill="#1B5E20">Expert Home Services</text>
</svg>
